<?xml version="1.0" encoding="UTF-8"?>
<svg width="246px" height="50px" viewBox="0 0 246 50" version="1.1" xmlns="http://www.w3.org/2000/svg" xmlns:xlink="http://www.w3.org/1999/xlink">
    <!-- Generator: Sketch 47.1 (45422) - http://www.bohemiancoding.com/sketch -->
    <title>Sparkplug - Nexa</title>
    <desc>Created with Sketch.</desc>
    <defs></defs>
    <g id="Page-1" stroke="none" stroke-width="1" fill="none" fill-rule="evenodd">
        <g id="Sparkplug---Nexa">
            <g id="hybrid" transform="translate(0.000000, 1.000000)" fill="#5D74FF">
                <g transform="translate(24.500000, 24.585366) rotate(-30.000000) translate(-24.500000, -24.585366) " id="Shape">
                    <path d="M35.3888889,22.6341463 L31.5,22.6341463 L31.5,17.1707317 C31.5,16.7396802 31.151777,16.3902439 30.7222222,16.3902439 C30.2926674,16.3902439 29.9444444,16.7396802 29.9444444,17.1707317 L29.9444444,22.6341463 L19.0555556,22.6341463 L19.0555556,17.1707317 C19.0555556,16.7396802 18.7073326,16.3902439 18.2777778,16.3902439 C17.848223,16.3902439 17.5,16.7396802 17.5,17.1707317 L17.5,22.6341463 L13.6111111,22.6341463 C13.1815563,22.6341463 12.8333333,22.9835826 12.8333333,23.4146341 L12.8333333,32.7804878 C12.8432174,38.9369359 17.6009699,44.0348974 23.7222222,44.448 L23.7222222,48.3902439 C23.7222222,48.8212954 24.0704452,49.1707317 24.5,49.1707317 C24.9295548,49.1707317 25.2777778,48.8212954 25.2777778,48.3902439 L25.2777778,44.448 C31.3990301,44.0348974 36.1567826,38.9369359 36.1666667,32.7804878 L36.1666667,23.4146341 C36.1666667,22.9835826 35.8184437,22.6341463 35.3888889,22.6341463 Z" fill-rule="nonzero"></path>
                    <path d="M24.5,7.07076454e-16 C15.220138,-5.30307341e-16 6.73674052,5.28136822 2.58666009,13.6422249 C-1.56342034,22.0030816 -0.667804237,32.0082492 4.90011294,39.4864268 C5.069525,39.7139613 5.34657521,39.8331707 5.62690144,39.79915 C5.90722767,39.7651292 6.1482417,39.5830469 6.25915586,39.3214916 C6.37007003,39.0599363 6.33403384,38.7586445 6.16462178,38.53111 C0.181438408,30.4951952 0.0431333702,19.4844981 5.82255585,11.2986648 C11.6019783,3.11283154 21.9726424,-0.36933534 31.4720251,2.68632018 C40.9714079,5.7419757 47.4192228,14.6341233 47.4192228,24.6790167 C47.4337849,29.6766867 45.8238615,34.5417752 42.8353782,38.53111 C42.6659661,38.7586445 42.6299299,39.0599363 42.7408441,39.3214916 C42.8517583,39.5830469 43.0927723,39.7651293 43.3730985,39.79915 C43.6534248,39.8331707 43.930475,39.7139613 44.0998871,39.4864268 C49.6678042,32.0082492 50.5634203,22.0030816 46.4133399,13.6422249 C42.2632595,5.28136822 33.779862,5.30307341e-16 24.5,7.07076454e-16 Z" fill-rule="nonzero"></path>
                    <path d="M24.5118999,5.85367551 C19.1534269,5.84611693 14.0751408,8.36368784 10.6792234,12.7112537 C10.5012034,12.9364103 10.4516357,13.244257 10.5492864,13.5182448 C10.646937,13.7922327 10.876881,13.9904853 11.152063,14.0379454 C11.427245,14.0854056 11.705606,13.9748194 11.8817602,13.7480542 C14.9827931,9.78849466 19.6098868,7.49143866 24.4953298,7.48622392 C29.3807729,7.48100918 34.0123145,9.76818248 37.1210244,13.7211138 C37.2980188,13.9461324 37.5760212,14.0550184 37.8503107,14.0067552 C38.1246001,13.9584921 38.3535057,13.7604122 38.4508008,13.4871304 C38.5480958,13.2138486 38.498999,12.9068828 38.3220046,12.6818641 C34.925299,8.35216898 29.8577056,5.84657734 24.5118999,5.85367551 Z" fill-rule="nonzero"></path>
                </g>
            </g>
            <path d="M81.262314,18.1585124 C79.6766942,14.927438 76.2960331,14 73.0350413,14 C69.1757025,14.0299174 64.927438,15.7950413 64.927438,20.1031405 C64.927438,24.8001653 68.8765289,25.9370248 73.1547107,26.4456198 C75.9370248,26.7447934 78.0013223,27.552562 78.0013223,29.5271074 C78.0013223,31.8008264 75.6677686,32.6684298 73.1846281,32.6684298 C70.6416529,32.6684298 68.2183471,31.6512397 67.2909091,29.3476033 L64,31.0528926 C65.5557025,34.882314 68.8466116,36.1986777 73.1247934,36.1986777 C77.7919008,36.1986777 81.9204959,34.1942149 81.9204959,29.5271074 C81.9204959,24.5309091 77.8517355,23.3940496 73.4838017,22.8555372 C70.9707438,22.5563636 68.8166942,22.0477686 68.8166942,20.2228099 C68.8166942,18.6671074 70.2228099,17.4404959 73.1547107,17.4404959 C75.4284298,17.4404959 77.4029752,18.5773554 78.1209917,19.7740496 L81.262314,18.1585124 Z M88.921157,18.457686 L88.921157,25.8771901 L94.8447934,25.8771901 C99.9008264,25.8771901 99.8709091,18.457686 94.8447934,18.457686 L88.921157,18.457686 Z M94.8447934,14.6880992 C105.076529,14.6880992 105.106446,29.4971901 94.8447934,29.4971901 L88.921157,29.4971901 L88.921157,35.6601653 L84.9720661,35.6601653 L84.9720661,14.7180165 C88.2629752,14.7180165 91.5538843,14.6880992 94.8447934,14.6880992 Z M121.830248,35.6601653 L120.065124,31.7110744 L109.115372,31.7110744 L107.320331,35.6601653 L103.042149,35.6601653 L112.436198,14.7180165 L116.744298,14.7180165 L126.138347,35.6601653 L121.830248,35.6601653 Z M118.479504,28.0312397 L114.590248,19.1158678 L110.700992,28.0312397 L118.479504,28.0312397 Z M146.482149,35.3909091 L146.482149,35.6601653 L141.785124,35.6601653 L135.681983,28.6595041 L131.882479,28.6595041 L131.882479,35.6601653 L127.933388,35.6601653 L127.933388,14.6880992 C131.254215,14.6880992 134.575041,14.7180165 137.895868,14.7180165 C142.832231,14.7479339 145.435041,18.038843 145.435041,21.658843 C145.435041,24.5309091 144.118678,27.4328926 140.139669,28.2406612 L146.482149,35.3909091 Z M137.895868,18.3978512 L131.882479,18.3978512 L131.882479,25.0993388 L137.895868,25.0993388 C140.408926,25.0993388 141.48595,23.4239669 141.48595,21.748595 C141.48595,20.0732231 140.379008,18.3978512 137.895868,18.3978512 Z M164.91124,14.7180165 L160.004793,14.7180165 L152.046777,23.5735537 L152.046777,14.7180165 L148.097686,14.7180165 L148.097686,35.6601653 L152.046777,35.6601653 L152.046777,26.3857851 L160.812562,35.6601653 L165.689091,35.6601653 L165.689091,35.4208264 L155.606942,24.86 L164.91124,14.837686 L164.91124,14.7180165 Z M171.642645,18.457686 L171.642645,25.8771901 L177.566281,25.8771901 C182.622314,25.8771901 182.592397,18.457686 177.566281,18.457686 L171.642645,18.457686 Z M177.566281,14.6880992 C187.798017,14.6880992 187.827934,29.4971901 177.566281,29.4971901 L171.642645,29.4971901 L171.642645,35.6601653 L167.693554,35.6601653 L167.693554,14.7180165 C170.984463,14.7180165 174.275372,14.6880992 177.566281,14.6880992 Z M187.917686,14.7180165 L187.917686,35.6601653 L202.637025,35.6601653 L202.637025,32.0102479 L191.866777,32.0102479 L191.866777,14.7180165 L187.917686,14.7180165 Z M218.64281,14.7479339 L218.64281,26.7447934 C218.64281,30.334876 216.787934,32.518843 213.526942,32.518843 C210.26595,32.518843 208.111901,30.5143802 208.111901,26.7447934 L208.111901,14.7479339 L204.192727,14.7479339 L204.192727,26.7447934 C204.192727,33.0573554 208.470909,36.1089256 213.497025,36.1089256 C218.762479,36.1089256 222.561983,32.937686 222.561983,26.7447934 L222.561983,14.7479339 L218.64281,14.7479339 Z M244.43157,17.3208264 C242.277521,15.1966942 239.465289,14.1196694 236.653058,14.1196694 C229.263471,14.1196694 225.583636,19.5646281 225.583636,25.4583471 C225.583636,30.9631405 228.784793,36.138843 236.653058,36.138843 C240.332893,36.138843 242.935702,34.7327273 245,32.3692562 L245,23.5436364 L236.024793,23.5436364 L236.024793,27.0738843 L241.38,27.0738843 L241.38,30.7836364 C239.734545,32.1 238.298512,32.4590083 236.653058,32.4590083 C231.447438,32.4590083 229.442975,28.898843 229.442975,25.4583471 C229.442975,21.1502479 232.165455,17.7396694 236.653058,17.7396694 C238.478017,17.7396694 240.572231,18.4876033 241.978347,19.8338843 L244.43157,17.3208264 Z" id="Sparkplug" fill="#323232"></path>
        </g>
    </g>
</svg>