<svg xmlns="http://www.w3.org/2000/svg" width="888" height="512" viewBox="0 0 888 512">
  <g fill="none" fill-rule="evenodd">
    <path fill="#FFA919" d="M67.7,239.64 C63.14,235.64 58.5,234.44 52.34,234.44 C45.14,234.44 35.7,237.64 35.7,246.76 C35.7,255.72 44.58,258.44 52.02,259 C57.62,259.32 59.86,260.44 59.86,263.16 C59.86,266.04 56.42,267.96 52.74,267.88 C48.34,267.8 41.94,265.48 39.14,262.36 L34.34,269.32 C40.1,275.32 46.34,276.36 52.58,276.36 C63.86,276.36 69.54,270.36 69.54,263.4 C69.54,252.92 60.1,251.24 52.66,250.76 C47.62,250.44 45.3,249 45.3,246.44 C45.3,243.96 47.86,242.52 52.5,242.52 C56.26,242.52 59.46,243.4 62.26,246.04 L67.7,239.64 Z M97.62,266.52 C104.26,266.52 108.82,261.48 108.82,255.32 C108.82,249.16 104.66,244.12 97.62,244.12 C90.58,244.12 86.42,249.16 86.42,255.32 C86.42,261.48 90.98,266.52 97.62,266.52 Z M85.54,291.48 L75.78,291.48 L75.78,235.56 L84.9,235.56 L85.54,241 C88.58,236.6 93.86,234.68 98.34,234.68 C110.5,234.68 118.58,243.72 118.58,255.32 C118.58,266.84 111.3,275.96 98.66,275.96 C94.5,275.96 88.34,274.68 85.54,270.36 L85.54,291.48 Z M156.74,241 L157.06,235.56 L166.42,235.56 L166.42,275 L157.22,275 L156.74,269.24 C154.5,273.88 148.34,276.12 143.94,276.2 C132.26,276.28 123.62,269.08 123.62,255.24 C123.62,241.64 132.66,234.52 144.18,234.6 C149.46,234.6 154.5,237.08 156.74,241 Z M145.06,243.32 C138.58,243.32 133.38,247.72 133.38,255.24 C133.38,262.76 138.58,267.24 145.06,267.24 C160.42,267.24 160.42,243.32 145.06,243.32 Z M174.66,235.56 L174.66,275 L184.42,275 L184.42,254.2 C184.42,246.92 189.14,244.2 194.26,244.2 C197.46,244.2 199.3,245.08 201.3,246.76 L205.7,238.28 C203.54,236.12 199.62,234.52 195.54,234.52 C191.54,234.52 187.46,235.24 184.42,240.12 L183.7,235.56 L174.66,235.56 Z M209.14,219.08 L209.14,275 L218.9,275 L218.9,257.16 L234.34,275 L246.1,275 L246.1,274.28 L227.78,254.12 L243.86,236.12 L243.86,235.56 L232.18,235.56 L218.9,251.4 L218.9,219.08 L209.14,219.08 Z M272.42,266.52 C279.06,266.52 283.62,261.48 283.62,255.32 C283.62,249.16 279.46,244.12 272.42,244.12 C265.38,244.12 261.22,249.16 261.22,255.32 C261.22,261.48 265.78,266.52 272.42,266.52 Z M260.34,291.48 L250.58,291.48 L250.58,235.56 L259.7,235.56 L260.34,241 C263.38,236.6 268.66,234.68 273.14,234.68 C285.3,234.68 293.38,243.72 293.38,255.32 C293.38,266.84 286.1,275.96 273.46,275.96 C269.3,275.96 263.14,274.68 260.34,270.36 L260.34,291.48 Z M300.58,219.08 L300.58,275 L310.26,275 L310.26,219.08 L300.58,219.08 Z M319.06,235.56 L319.06,256.28 C319.06,268.52 325.94,275.64 335.38,275.64 C340.9,275.64 344.66,273.72 348.74,269.72 L349.38,275.08 L358.1,275.08 L358.1,235.56 L348.42,235.56 L348.42,255.72 C348.42,261.72 344.34,266.76 338.34,266.76 C332.1,266.76 328.82,262.2 328.82,256.2 L328.82,235.56 L319.06,235.56 Z M393.78,236.52 L397.7,231.56 L404.9,237 L400.5,242.6 C403.54,246.04 404.66,249.96 404.66,254.28 C404.66,259.16 402.82,266.04 396.34,269 C402.9,272.28 404.5,277 404.5,282.04 C404.5,292.92 396.18,299.64 384.74,299.64 C373.3,299.64 364.74,292.68 364.74,282.04 L374.42,282.04 C374.42,287.16 379.14,290.52 384.74,290.52 C390.34,290.52 394.74,287.48 394.74,282.04 C394.74,276.6 389.62,274.12 384.74,274.12 C372.42,274.12 364.74,266.6 364.74,254.28 C364.74,241.96 373.7,234.28 384.74,234.28 C387.86,234.28 391.06,234.68 393.78,236.52 Z M384.74,243.16 C379.06,243.16 374.42,247.4 374.42,254.28 C374.42,261.16 379.06,265.24 384.74,265.24 C390.34,265.24 394.98,261.08 394.98,254.28 C394.98,247.48 390.34,243.16 384.74,243.16 Z"/>
    <g fill-rule="nonzero" transform="translate(478 147)">
      <path fill="#FFB64D" d="M275.720611,7.26983095 C267.73246,-0.704695544 255.879919,-1.99131316 246.299712,2.78487079 C247.828632,3.94521559 249.377459,5.07825815 250.766456,6.46953432 L276.545363,32.2485279 C277.932653,33.6346849 279.059435,35.1795361 280.216364,36.7039106 C284.996513,27.1174149 283.697386,15.2602837 275.720611,7.26983095 Z"/>
      <polygon fill="#FFB64D" points="140.279 116.637 116.625 140.288 140.279 163.944 163.928 140.288"/>
      <path fill="#FFA919" d="M104.829393,79.1629805 C101.507824,75.8405671 96.1240834,75.8394338 92.8013812,79.1601471 L80.7847001,91.1713828 C77.463131,94.4949295 77.464264,99.8777719 80.7847001,103.199619 L104.819195,127.240223 L128.85879,103.198485 L104.829393,79.1629805 Z"/>
      <path fill="#989EB1" d="M268.655116,49.5011044 C267.493959,47.3219771 266.287266,45.1451132 264.452751,43.3247413 L238.647167,17.6618535 C236.816068,15.8329936 234.625237,14.6311067 232.434406,13.4739228 L232.427007,13.481279 C223.752478,8.92270992 211.610985,9.7075579 203.85229,16.3513215 C203.827246,16.3728241 203.794802,16.3801803 203.769757,16.4022489 L130.489914,78.9094202 L202.07811,150.078212 L265.703841,77.9893317 C272.541578,70.1368909 273.262179,58.1548031 268.655116,49.5011044 Z"/>
      <path fill="#707487" d="M81.359362,127.240223 L69.2252417,139.41635 L76.3335946,146.55032 C79.6839156,149.912715 79.6839156,155.360609 76.3335946,158.723003 C72.9827019,162.085972 67.5555136,162.085972 64.2046208,158.723003 L57.0951243,151.587886 L44.9650068,163.759422 L52.075647,170.895687 C55.4259679,174.258082 55.4259679,179.705976 52.075647,183.06837 C48.7247542,186.431339 43.297566,186.431339 39.9466732,183.06837 L32.8348893,175.930958 L26.762111,182.025621 C16.7523195,192.096736 16.7523195,208.472556 26.7706883,218.543671 L38.9025213,230.72152 L32.8348893,236.811018 C29.4845684,240.173413 29.4845684,245.621307 32.8348893,248.983701 C36.1857821,252.34667 41.6129704,252.34667 44.9638631,248.983701 L51.0292078,242.896499 L63.1656153,255.078365 C65.316248,257.233304 67.8540061,258.694417 70.4580958,259.923679 L63.1656153,267.24244 C53.1392409,277.296912 36.8136456,277.296912 26.7706883,267.24244 L14.6417145,255.069756 C11.2913936,251.707362 5.86306165,251.707362 2.51274071,255.069756 C-0.837580236,258.432151 -0.837580236,263.880045 2.51274071,267.24244 L14.6417145,279.415123 C31.3612971,296.194959 58.5750066,296.194959 75.2945891,279.415123 C88.8119533,265.849046 92.1039482,262.545188 105.621312,248.97911 L98.5141031,241.846289 C95.1637821,238.483894 95.1637821,233.036 98.5141031,229.673605 C101.864424,226.31121 107.292756,226.31121 110.643077,229.673605 L117.750286,236.806427 L129.87926,224.633743 L122.772051,217.500921 C119.42173,214.138527 119.42173,208.690633 122.772051,205.328238 C126.122372,201.965843 131.550704,201.965843 134.901025,205.328238 L142.008234,212.46106 L154.14121,200.284359 L81.359362,127.240223 Z"/>
      <path fill="#FFA919" d="M202.215397,176.559707 L178.180003,152.52514 L154.14121,176.567073 L178.182837,200.607873 C181.500877,203.925799 186.88136,203.923532 190.197134,200.603906 L202.215397,188.586056 C205.53627,185.265297 205.53627,179.881033 202.215397,176.559707 Z"/>
    </g>
    <g fill="#FFA919" fill-rule="nonzero" transform="translate(652 43)">
      <path d="M171.673004 85.0190114C171.673004 87.5986702 172.712396 90.1304468 174.546793 91.9549619 176.371215 93.779477 178.891891 94.8288973 181.472416 94.8288973 184.062916 94.8288973 186.593566 93.7784794 188.417989 91.9549619 190.243409 90.1294492 191.292776 87.5986702 191.292776 85.0190114 191.292776 82.4293771 190.242411 79.907576 188.417989 78.0830609 186.593566 76.2585459 184.062916 75.2091255 181.472416 75.2091255 178.892888 75.2091255 176.371215 76.2595434 174.546793 78.0830609 172.712396 79.8985981 171.673004 82.4293771 171.673004 85.0190114zM134.068441 47.4144487C136.6481 47.4144487 139.179876 46.3640307 141.003394 44.5405132 142.837885 42.7150006 143.878327 40.1842216 143.878327 37.6045627 143.878327 35.0249039 142.837885 32.4931274 141.003394 30.6686123 139.178879 28.8440972 136.658075 27.7946768 134.068441 27.7946768 131.487785 27.7946768 128.956008 28.8450947 127.132491 30.6686123 125.306978 32.4941249 124.258555 35.0249039 124.258555 37.6045627 124.258555 40.1842216 125.307976 42.7159981 127.132491 44.5405132 128.956008 46.3650283 131.486787 47.4144487 134.068441 47.4144487zM54.7718631 35.1520913C57.3525195 35.1520913 59.8832985 34.1116488 61.7078136 32.2771582 63.5423042 30.4526432 64.581749 27.9318396 64.581749 25.3422053 64.581749 22.7625465 63.5423042 20.2407454 61.7078136 18.4062549 59.8823009 16.5807422 57.3525195 15.5323194 54.7718631 15.5323194 52.1922043 15.5323194 49.6604277 16.5817398 47.8369102 18.4062549 46.0113976 20.2407454 44.9619772 22.7625465 44.9619772 25.3422053 44.9619772 27.9318396 46.0123951 30.4626186 47.8369102 32.2771582 49.6604277 34.1116488 52.1912067 35.1520913 54.7718631 35.1520913zM9.80938718 103.003802C12.3889149 103.003802 14.9205627 101.953384 16.75496 100.129867 18.5803798 98.3043542 19.6197719 95.7735752 19.6197719 93.1939163 19.6197719 90.6142575 18.5803798 88.082481 16.75496 86.2579659 14.9205627 84.4334508 12.3889149 83.3840304 9.80938718 83.3840304 7.2298595 83.3840304 4.69821168 84.4344483 2.87478685 86.2579659 1.05036452 88.0834785 0 90.6142575 0 93.1939163 0 95.7735752 1.05036452 98.3053517 2.87478685 100.129867 4.69821168 101.953384 7.2298595 103.003802 9.80938718 103.003802zM121.806084 195.380228C119.215452 195.380228 116.684673 196.430646 114.870133 198.254164 113.035643 200.079676 111.996198 202.610455 111.996198 205.190114 111.996198 207.779748 113.035643 210.301549 114.870133 212.126065 116.684673 213.95058 119.215452 215 121.806084 215 124.385742 215 126.906546 213.949582 128.741037 212.126065 130.565552 210.300552 131.61597 207.769773 131.61597 205.190114 131.61597 202.610455 130.565552 200.078679 128.741037 198.254164 126.917519 196.429649 124.38674 195.380228 121.806084 195.380228zM188.840304 150.418251C186.260645 150.418251 183.728869 151.468669 181.904354 153.292186 180.078841 155.116702 179.030418 157.648478 179.030418 160.228137 179.030418 162.817771 180.079839 165.339572 181.904354 167.164087 183.729866 168.988602 186.260645 170.038023 188.840304 170.038023 191.419963 170.038023 193.95174 168.987605 195.775257 167.164087 197.60077 165.339572 198.65019 162.807796 198.65019 160.228137 198.65019 157.648478 197.599772 155.126677 195.775257 153.292186 193.95174 151.467671 191.420961 150.418251 188.840304 150.418251zM127.088529 88.7297883C128.975588 90.6158864 131.447133 91.5589354 133.919661 91.5589354 136.392189 91.5589354 138.864717 90.6158864 140.750794 88.7297883L174.565586 54.9146051C178.338721 51.1414267 178.338721 45.0243786 174.565586 41.2512003 170.791469 37.4790042 164.676456 37.4790042 160.902339 41.2512003L127.087547 75.0663835C123.315394 78.8395619 123.315394 84.95661 127.088529 88.7297883zM58.7172765 88.7297883C60.6043046 90.6158864 63.0758103 91.5589354 65.5482984 91.5589354 68.0207864 91.5589354 70.4922921 90.6158864 72.3793202 88.7297883 76.1523939 84.95661 76.1523939 78.8395619 72.3793202 75.0663835L38.5650746 41.2512003C34.7910185 37.4790042 28.6761047 37.4790042 24.9020486 41.2512003 21.1289749 45.0243786 21.1289749 51.1414267 24.9020486 54.9146051L58.7172765 88.7297883zM95.6458891 67.0342205C101.063296 67.0342205 105.456274 62.7160442 105.456274 57.3886914L105.456274 9.64552909C105.456274 4.3191571 101.063296 0 95.6458891 0 90.2284819 0 85.8365019 4.3191571 85.8365019 9.64552909L85.8365019 57.3896722C85.8365019 62.7160442 90.2284819 67.0342205 95.6458891 67.0342205zM140.751691 142.620022C136.977565 138.847826 130.862539 138.847826 127.088413 142.620022 123.315269 146.3932 123.315269 152.510248 127.088413 156.283426L160.903283 190.09861C162.790346 191.984708 165.261898 192.927757 167.734432 192.927757 170.206965 192.927757 172.679499 191.984708 174.56558 190.09861 178.338723 186.325431 178.338723 180.208383 174.56558 176.435205L140.751691 142.620022zM205.354471 109.543726L157.611309 109.543726C152.284937 109.543726 147.965779 113.935706 147.965779 119.354111 147.965779 124.772516 152.283956 129.163498 157.611309 129.163498L205.354471 129.163498C210.680843 129.163498 215 124.771518 215 119.354111 215 113.936704 210.680843 109.543726 205.354471 109.543726z"/>
    </g>
  </g>
</svg>
