<svg xmlns="http://www.w3.org/2000/svg" width="512" height="512" viewBox="0 0 512 512">
  <g fill="none" fill-rule="evenodd">
    <path fill="#FFA919" d="M141.4,431.48 C137.98,428.48 134.5,427.58 129.88,427.58 C124.48,427.58 117.4,429.98 117.4,436.82 C117.4,443.54 124.06,445.58 129.64,446 C133.84,446.24 135.52,447.08 135.52,449.12 C135.52,451.28 132.94,452.72 130.18,452.66 C126.88,452.6 122.08,450.86 119.98,448.52 L116.38,453.74 C120.7,458.24 125.38,459.02 130.06,459.02 C138.52,459.02 142.78,454.52 142.78,449.3 C142.78,441.44 135.7,440.18 130.12,439.82 C126.34,439.58 124.6,438.5 124.6,436.58 C124.6,434.72 126.52,433.64 130,433.64 C132.82,433.64 135.22,434.3 137.32,436.28 L141.4,431.48 Z M163.84,451.64 C168.82,451.64 172.24,447.86 172.24,443.24 C172.24,438.62 169.12,434.84 163.84,434.84 C158.56,434.84 155.44,438.62 155.44,443.24 C155.44,447.86 158.86,451.64 163.84,451.64 Z M154.78,470.36 L147.46,470.36 L147.46,428.42 L154.3,428.42 L154.78,432.5 C157.06,429.2 161.02,427.76 164.38,427.76 C173.5,427.76 179.56,434.54 179.56,443.24 C179.56,451.88 174.1,458.72 164.62,458.72 C161.5,458.72 156.88,457.76 154.78,454.52 L154.78,470.36 Z M208.18,432.5 L208.42,428.42 L215.44,428.42 L215.44,458 L208.54,458 L208.18,453.68 C206.5,457.16 201.88,458.84 198.58,458.9 C189.82,458.96 183.34,453.56 183.34,443.18 C183.34,432.98 190.12,427.64 198.76,427.7 C202.72,427.7 206.5,429.56 208.18,432.5 Z M199.42,434.24 C194.56,434.24 190.66,437.54 190.66,443.18 C190.66,448.82 194.56,452.18 199.42,452.18 C210.94,452.18 210.94,434.24 199.42,434.24 Z M221.62,428.42 L221.62,458 L228.94,458 L228.94,442.4 C228.94,436.94 232.48,434.9 236.32,434.9 C238.72,434.9 240.1,435.56 241.6,436.82 L244.9,430.46 C243.28,428.84 240.34,427.64 237.28,427.64 C234.28,427.64 231.22,428.18 228.94,431.84 L228.4,428.42 L221.62,428.42 Z M247.48,416.06 L247.48,458 L254.8,458 L254.8,444.62 L266.38,458 L275.2,458 L275.2,457.46 L261.46,442.34 L273.52,428.84 L273.52,428.42 L264.76,428.42 L254.8,440.3 L254.8,416.06 L247.48,416.06 Z M294.94,451.64 C299.92,451.64 303.34,447.86 303.34,443.24 C303.34,438.62 300.22,434.84 294.94,434.84 C289.66,434.84 286.54,438.62 286.54,443.24 C286.54,447.86 289.96,451.64 294.94,451.64 Z M285.88,470.36 L278.56,470.36 L278.56,428.42 L285.4,428.42 L285.88,432.5 C288.16,429.2 292.12,427.76 295.48,427.76 C304.6,427.76 310.66,434.54 310.66,443.24 C310.66,451.88 305.2,458.72 295.72,458.72 C292.6,458.72 287.98,457.76 285.88,454.52 L285.88,470.36 Z M316.06,416.06 L316.06,458 L323.32,458 L323.32,416.06 L316.06,416.06 Z M329.92,428.42 L329.92,443.96 C329.92,453.14 335.08,458.48 342.16,458.48 C346.3,458.48 349.12,457.04 352.18,454.04 L352.66,458.06 L359.2,458.06 L359.2,428.42 L351.94,428.42 L351.94,443.54 C351.94,448.04 348.88,451.82 344.38,451.82 C339.7,451.82 337.24,448.4 337.24,443.9 L337.24,428.42 L329.92,428.42 Z M385.96,429.14 L388.9,425.42 L394.3,429.5 L391,433.7 C393.28,436.28 394.12,439.22 394.12,442.46 C394.12,446.12 392.74,451.28 387.88,453.5 C392.8,455.96 394,459.5 394,463.28 C394,471.44 387.76,476.48 379.18,476.48 C370.6,476.48 364.18,471.26 364.18,463.28 L371.44,463.28 C371.44,467.12 374.98,469.64 379.18,469.64 C383.38,469.64 386.68,467.36 386.68,463.28 C386.68,459.2 382.84,457.34 379.18,457.34 C369.94,457.34 364.18,451.7 364.18,442.46 C364.18,433.22 370.9,427.46 379.18,427.46 C381.52,427.46 383.92,427.76 385.96,429.14 Z M379.18,434.12 C374.92,434.12 371.44,437.3 371.44,442.46 C371.44,447.62 374.92,450.68 379.18,450.68 C383.38,450.68 386.86,447.56 386.86,442.46 C386.86,437.36 383.38,434.12 379.18,434.12 Z"/>
    <g fill-rule="nonzero" transform="translate(97 119)">
      <path fill="#FFB64D" d="M230.903833,6.07479024 C224.21411,-0.58885518 214.28813,-1.66397401 206.26513,2.32708381 C207.545533,3.296687 208.842607,4.24347599 210.00583,5.40604922 L231.594527,26.9474 C232.756321,28.1056956 233.699951,29.3965986 234.668827,30.6703911 C238.671992,22.6597577 237.58403,12.7517439 230.903833,6.07479024 Z"/>
      <polygon fill="#FFB64D" points="117.477 97.464 97.669 117.227 117.477 136.994 137.282 117.227"/>
      <path fill="#FFA919" d="M87.7899864,66.1498878 C85.008319,63.3736246 80.4996741,63.3726775 77.7170578,66.1475202 L67.6536181,76.1843061 C64.8719507,78.9615164 64.8728996,83.459508 67.6536181,86.2352978 L87.7814464,106.324022 L107.913545,86.2343507 L87.7899864,66.1498878 Z"/>
      <path fill="#989EB1" d="M224.986793,41.3639365 C224.014375,39.5430219 223.003823,37.7239987 221.467498,36.202866 L199.856462,14.7585351 C198.322997,13.2303097 196.488273,12.2259933 194.653549,11.2590314 L194.647352,11.2651783 C187.382818,7.45596308 177.214853,8.11179495 170.717289,13.663433 C170.696315,13.681401 170.669145,13.6875479 170.648171,13.7059888 L109.279539,65.9380087 L169.231492,125.407821 L222.515231,65.1691676 C228.241534,58.607539 228.845005,48.5951094 224.986793,41.3639365 Z"/>
      <path fill="#707487" d="M68.134872,106.324022 L57.9730823,116.498594 L63.9260139,122.459856 C66.7317597,125.269529 66.7317597,129.821879 63.9260139,132.631551 C61.1197892,135.441703 56.5747587,135.441703 53.768534,132.631551 L47.8146447,126.669329 L37.6562071,136.840065 L43.6110542,142.803245 C46.4168,145.612917 46.4168,150.165267 43.6110542,152.97494 C40.8048295,155.785091 36.259799,155.785091 33.4535744,152.97494 L27.4977695,147.0108 L22.4120859,152.103601 C14.0293276,160.51919 14.0293276,174.203095 22.419269,182.618684 L32.5791433,192.794695 L27.4977695,197.883179 C24.6920237,200.692852 24.6920237,205.245202 27.4977695,208.054874 C30.3039942,210.865026 34.8490247,210.865026 37.6552493,208.054874 L42.7347076,202.968307 L52.8984128,213.147674 C54.6994727,214.948378 56.824733,216.169307 59.0055431,217.196499 L52.8984128,223.312176 C44.5017672,231.713858 30.8298022,231.713858 22.419269,223.312176 L12.2617892,213.140481 C9.45604338,210.330809 4.91005517,210.330809 2.10430936,213.140481 C-0.701436452,215.950153 -0.701436452,220.502503 2.10430936,223.312176 L12.2617892,233.48387 C26.2637011,247.505377 49.0539808,247.505377 63.0558927,233.48387 C74.3760881,222.147833 77.1329884,219.387075 88.4531838,208.051037 L82.50121,202.090734 C79.6954642,199.281062 79.6954642,194.728712 82.50121,191.91904 C85.3069558,189.109368 89.852944,189.109368 92.6586898,191.91904 L98.6106637,197.879343 L108.768144,187.707648 L102.81617,181.747345 C100.010424,178.937673 100.010424,174.385323 102.81617,171.575651 C105.621915,168.765979 110.167904,168.765979 112.97365,171.575651 L118.925623,177.535954 L129.086455,167.360903 L68.134872,106.324022 Z"/>
      <path fill="#FFA919" d="M169.346463,147.536194 L149.217883,127.452514 L129.086455,147.542348 L149.220255,167.631236 C151.998967,170.40375 156.504884,170.401856 159.281698,167.627922 L169.346463,157.585609 C172.127548,154.810728 172.127548,150.311548 169.346463,147.536194 Z"/>
    </g>
    <g fill="#FFA919" fill-rule="nonzero" transform="translate(242 33)">
      <path d="M142.927757 70.78327C142.927757 72.9309859 143.793111 75.0388371 145.320353 76.557852 146.839291 78.0768669 148.9379 78.9505703 151.086337 78.9505703 153.243079 78.9505703 155.349993 78.0760363 156.86893 76.557852 158.388698 75.0380066 159.262357 72.9309859 159.262357 70.78327 159.262357 68.6272488 158.387868 66.5277028 156.86893 65.0086879 155.349993 63.4896731 153.243079 62.6159696 151.086337 62.6159696 148.93873 62.6159696 146.839291 63.4905036 145.320353 65.0086879 143.793111 66.5202282 142.927757 68.6272488 142.927757 70.78327zM111.619772 39.4752852C113.767488 39.4752852 115.875339 38.6007512 117.393523 37.0825668 118.920843 35.5627214 119.787072 33.4557008 119.787072 31.3079848 119.787072 29.1602688 118.920843 27.0524177 117.393523 25.5334028 115.874508 24.0143879 113.775793 23.1406844 111.619772 23.1406844 109.471225 23.1406844 107.363374 24.0152184 105.84519 25.5334028 104.325344 27.0532482 103.452471 29.1602688 103.452471 31.3079848 103.452471 33.4557008 104.326175 35.5635519 105.84519 37.0825668 107.363374 38.6015817 109.470395 39.4752852 111.619772 39.4752852zM45.6007605 29.2661597C47.7493069 29.2661597 49.8563276 28.3999309 51.3753425 26.8726108 52.9026625 25.3535959 53.7680608 23.2548804 53.7680608 21.0988593 53.7680608 18.9511434 52.9026625 16.8515974 51.3753425 15.3242773 49.8554971 13.8044319 47.7493069 12.9315589 45.6007605 12.9315589 43.4530445 12.9315589 41.3451933 13.8052624 39.827009 15.3242773 38.3071636 16.8515974 37.4334601 18.9511434 37.4334601 21.0988593 37.4334601 23.2548804 38.3079941 25.3619011 39.827009 26.8726108 41.3451933 28.3999309 43.452214 29.2661597 45.6007605 29.2661597zM8.16688514 85.756654C10.3144919 85.756654 12.4222359 84.88212 13.9494783 83.3639356 15.4692464 81.8440902 16.3346008 79.7370696 16.3346008 77.5893536 16.3346008 75.4416376 15.4692464 73.3337865 13.9494783 71.8147716 12.4222359 70.2957567 10.3144919 69.4220532 8.16688514 69.4220532 6.01927837 69.4220532 3.91153437 70.2965872 2.39342719 71.8147716.874489532 73.334617 0 75.4416376 0 77.5893536 0 79.7370696.874489532 81.8449207 2.39342719 83.3639356 3.91153437 84.88212 6.01927837 85.756654 8.16688514 85.756654zM101.410646 162.665399C99.2537947 162.665399 97.1467741 163.539933 95.6360644 165.058118 94.1087443 166.577963 93.243346 168.684984 93.243346 170.8327 93.243346 172.988721 94.1087443 175.088267 95.6360644 176.607282 97.1467741 178.126297 99.2537947 179 101.410646 179 103.558362 179 105.657078 178.125466 107.184398 176.607282 108.703413 175.087436 109.577947 172.980416 109.577947 170.8327 109.577947 168.684984 108.703413 166.577132 107.184398 165.058118 105.666214 163.539103 103.559193 162.665399 101.410646 162.665399zM157.220532 125.231939C155.072816 125.231939 152.964965 126.106473 151.44595 127.624658 149.926105 129.143672 149.053232 131.251524 149.053232 133.39924 149.053232 135.555261 149.926935 137.654807 151.44595 139.173822 152.965796 140.692836 155.072816 141.56654 157.220532 141.56654 159.368248 141.56654 161.476099 140.692006 162.994284 139.173822 164.514129 137.654807 165.387833 135.546956 165.387833 133.39924 165.387833 131.251524 164.513299 129.151978 162.994284 127.624658 161.476099 126.105643 159.369079 125.231939 157.220532 125.231939zM105.808589 73.8727075C107.379675 75.4429938 109.437381 76.2281369 111.495904 76.2281369 113.554427 76.2281369 115.612951 75.4429938 117.183219 73.8727075L145.336 45.7196014C148.477354 42.5782111 148.477354 37.4854129 145.336 34.3440225 142.193828 31.20345 137.102724 31.20345 133.960552 34.3440225L105.807771 62.4971286C102.667235 65.638519 102.667235 70.7313171 105.808589 73.8727075zM48.8855465 73.8727075C50.4566071 75.4429938 52.5142793 76.2281369 54.5727693 76.2281369 56.6312594 76.2281369 58.6889316 75.4429938 60.2599921 73.8727075 63.4012954 70.7313171 63.4012954 65.638519 60.2599921 62.4971286L32.1076667 34.3440225C28.9655457 31.20345 23.8745244 31.20345 20.7324033 34.3440225 17.5911 37.4854129 17.5911 42.5782111 20.7324033 45.7196014L48.8855465 73.8727075zM79.6307635 55.8098859C84.1410699 55.8098859 87.7984791 52.214753 87.7984791 47.7794222L87.7984791 8.03046376C87.7984791 3.5959494 84.1410699 0 79.6307635 0 75.1204571 0 71.4638783 3.5959494 71.4638783 8.03046376L71.4638783 47.7802387C71.4638783 52.214753 75.1204571 55.8098859 79.6307635 55.8098859zM117.183966 118.73946C114.041787 115.598887 108.950672 115.598887 105.808492 118.73946 102.667131 121.88085 102.667131 126.973648 105.808492 130.115039L133.961338 158.268145C135.532428 159.838431 137.590138 160.623574 139.648666 160.623574 141.707194 160.623574 143.765722 159.838431 145.335994 158.268145 148.477356 155.126754 148.477356 150.033956 145.335994 146.892566L117.183966 118.73946zM170.969536 91.2015209L131.220578 91.2015209C126.786063 91.2015209 123.190114 94.8580996 123.190114 99.3692365 123.190114 103.880373 126.785247 107.536122 131.220578 107.536122L170.969536 107.536122C175.404051 107.536122 179 103.879543 179 99.3692365 179 94.8589301 175.404051 91.2015209 170.969536 91.2015209z"/>
    </g>
  </g>
</svg>
