<svg xmlns="http://www.w3.org/2000/svg" width="512" height="512" viewBox="0 0 512 512">
  <g fill="#FFA919" fill-rule="evenodd">
    <path d="M68.7,238.22 C63.57,233.72 58.35,232.37 51.42,232.37 C43.32,232.37 32.7,235.97 32.7,246.23 C32.7,256.31 42.69,259.37 51.06,260 C57.36,260.36 59.88,261.62 59.88,264.68 C59.88,267.92 56.01,270.08 51.87,269.99 C46.92,269.9 39.72,267.29 36.57,263.78 L31.17,271.61 C37.65,278.36 44.67,279.53 51.69,279.53 C64.38,279.53 70.77,272.78 70.77,264.95 C70.77,253.16 60.15,251.27 51.78,250.73 C46.11,250.37 43.5,248.75 43.5,245.87 C43.5,243.08 46.38,241.46 51.6,241.46 C55.83,241.46 59.43,242.45 62.58,245.42 L68.7,238.22 Z M102.36,268.46 C109.83,268.46 114.96,262.79 114.96,255.86 C114.96,248.93 110.28,243.26 102.36,243.26 C94.44,243.26 89.76,248.93 89.76,255.86 C89.76,262.79 94.89,268.46 102.36,268.46 Z M88.77,296.54 L77.79,296.54 L77.79,233.63 L88.05,233.63 L88.77,239.75 C92.19,234.8 98.13,232.64 103.17,232.64 C116.85,232.64 125.94,242.81 125.94,255.86 C125.94,268.82 117.75,279.08 103.53,279.08 C98.85,279.08 91.92,277.64 88.77,272.78 L88.77,296.54 Z M168.87,239.75 L169.23,233.63 L179.76,233.63 L179.76,278 L169.41,278 L168.87,271.52 C166.35,276.74 159.42,279.26 154.47,279.35 C141.33,279.44 131.61,271.34 131.61,255.77 C131.61,240.47 141.78,232.46 154.74,232.55 C160.68,232.55 166.35,235.34 168.87,239.75 Z M155.73,242.36 C148.44,242.36 142.59,247.31 142.59,255.77 C142.59,264.23 148.44,269.27 155.73,269.27 C173.01,269.27 173.01,242.36 155.73,242.36 Z M189.03,233.63 L189.03,278 L200.01,278 L200.01,254.6 C200.01,246.41 205.32,243.35 211.08,243.35 C214.68,243.35 216.75,244.34 219,246.23 L223.95,236.69 C221.52,234.26 217.11,232.46 212.52,232.46 C208.02,232.46 203.43,233.27 200.01,238.76 L199.2,233.63 L189.03,233.63 Z M227.82,215.09 L227.82,278 L238.8,278 L238.8,257.93 L256.17,278 L269.4,278 L269.4,277.19 L248.79,254.51 L266.88,234.26 L266.88,233.63 L253.74,233.63 L238.8,251.45 L238.8,215.09 L227.82,215.09 Z M299.01,268.46 C306.48,268.46 311.61,262.79 311.61,255.86 C311.61,248.93 306.93,243.26 299.01,243.26 C291.09,243.26 286.41,248.93 286.41,255.86 C286.41,262.79 291.54,268.46 299.01,268.46 Z M285.42,296.54 L274.44,296.54 L274.44,233.63 L284.7,233.63 L285.42,239.75 C288.84,234.8 294.78,232.64 299.82,232.64 C313.5,232.64 322.59,242.81 322.59,255.86 C322.59,268.82 314.4,279.08 300.18,279.08 C295.5,279.08 288.57,277.64 285.42,272.78 L285.42,296.54 Z M330.69,215.09 L330.69,278 L341.58,278 L341.58,215.09 L330.69,215.09 Z M351.48,233.63 L351.48,256.94 C351.48,270.71 359.22,278.72 369.84,278.72 C376.05,278.72 380.28,276.56 384.87,272.06 L385.59,278.09 L395.4,278.09 L395.4,233.63 L384.51,233.63 L384.51,256.31 C384.51,263.06 379.92,268.73 373.17,268.73 C366.15,268.73 362.46,263.6 362.46,256.85 L362.46,233.63 L351.48,233.63 Z M435.54,234.71 L439.95,229.13 L448.05,235.25 L443.1,241.55 C446.52,245.42 447.78,249.83 447.78,254.69 C447.78,260.18 445.71,267.92 438.42,271.25 C445.8,274.94 447.6,280.25 447.6,285.92 C447.6,298.16 438.24,305.72 425.37,305.72 C412.5,305.72 402.87,297.89 402.87,285.92 L413.76,285.92 C413.76,291.68 419.07,295.46 425.37,295.46 C431.67,295.46 436.62,292.04 436.62,285.92 C436.62,279.8 430.86,277.01 425.37,277.01 C411.51,277.01 402.87,268.55 402.87,254.69 C402.87,240.83 412.95,232.19 425.37,232.19 C428.88,232.19 432.48,232.64 435.54,234.71 Z M425.37,242.18 C418.98,242.18 413.76,246.95 413.76,254.69 C413.76,262.43 418.98,267.02 425.37,267.02 C431.67,267.02 436.89,262.34 436.89,254.69 C436.89,247.04 431.67,242.18 425.37,242.18 Z"/>
    <g fill-rule="nonzero" transform="translate(409 184)">
      <path d="M65 32.5C65 33.4203783 65.3708374 34.323673 66.025319 34.9746288 66.6762418 35.6255847 67.5755758 36 68.4962632 36 69.4205094 36 70.3234023 35.6252288 70.9743251 34.9746288 71.6256037 34.3233171 72 33.4203783 72 32.5 72 31.5760626 71.6252479 30.676327 70.9743251 30.0253712 70.3234023 29.3744153 69.4205094 29 68.4962632 29 67.5759317 29 66.6762418 29.3747712 66.025319 30.0253712 65.3708374 30.6731239 65 31.5760626 65 32.5zM50.5 18C51.4203783 18 52.323673 17.6252288 52.9742729 16.9746288 53.6287879 16.3233171 54 15.4203783 54 14.5 54 13.5796217 53.6287879 12.676327 52.9742729 12.0253712 52.3233171 11.3744153 51.4239374 11 50.5 11 49.5792658 11 48.6759711 11.3747712 48.0253712 12.0253712 47.3740594 12.6766829 47 13.5796217 47 14.5 47 15.4203783 47.3744153 16.323673 48.0253712 16.9746288 48.6759711 17.6255847 49.5789099 18 50.5 18zM20.5 13C21.4207342 13 22.323673 12.6287879 22.9746288 11.9742729 23.6291438 11.3233171 24 10.4239374 24 9.5 24 8.57962172 23.6291438 7.67988611 22.9746288 7.02537116 22.3233171 6.37405939 21.4207342 6 20.5 6 19.5796217 6 18.676327 6.37441529 18.0257271 7.02537116 17.3744153 7.67988611 17 8.57962172 17 9.5 17 10.4239374 17.3747712 11.3268761 18.0257271 11.9742729 18.676327 12.6287879 19.5792658 13 20.5 13zM3.49982206 39C4.42015354 39 5.32340231 38.6252288 5.97788398 37.9746288 6.62916264 37.3233171 7 36.4203783 7 35.5 7 34.5796217 6.62916264 33.676327 5.97788398 33.0253712 5.32340231 32.3744153 4.42015354 32 3.49982206 32 2.57949057 32 1.6762418 32.3747712 1.02567492 33.0253712.374752148 33.6766829 0 34.5796217 0 35.5 0 36.4203783.374752148 37.323673 1.02567492 37.9746288 1.6762418 38.6252288 2.57949057 39 3.49982206 39zM46.5 75C45.5757067 75 44.6727679 75.3747712 44.0253712 76.0253712 43.3708562 76.6766829 43 77.5796217 43 78.5 43 79.4239374 43.3708562 80.323673 44.0253712 80.9746288 44.6727679 81.6255847 45.5757067 82 46.5 82 47.4203783 82 48.319758 81.6252288 48.9742729 80.9746288 49.6252288 80.3233171 50 79.4203783 50 78.5 50 77.5796217 49.6252288 76.676327 48.9742729 76.0253712 48.323673 75.3744153 47.4207342 75 46.5 75zM71.5 57C70.5796217 57 69.676327 57.3747712 69.0253712 58.0253712 68.3740594 58.676327 68 59.5796217 68 60.5 68 61.4239374 68.3744153 62.323673 69.0253712 62.9746288 69.6766829 63.6255847 70.5796217 64 71.5 64 72.4203783 64 73.323673 63.6252288 73.9742729 62.9746288 74.6255847 62.323673 75 61.4203783 75 60.5 75 59.5796217 74.6252288 58.6798861 73.9742729 58.0253712 73.323673 57.3744153 72.4207342 57 71.5 57zM48.0651637 33.9351475C48.7754269 34.6450492 49.7056831 35 50.636309 35 51.566935 35 52.4975609 34.6450492 53.2074543 33.9351475L65.9348825 21.2075723C67.3550392 19.7873992 67.3550392 17.4850255 65.9348825 16.0648525 64.5143562 14.6450492 62.2127485 14.6450492 60.7922221 16.0648525L48.064794 28.7924277C46.6450071 30.2126008 46.6450071 32.5149745 48.0651637 33.9351475zM21.7926923 33.9351475C22.502944 34.6450492 23.4331851 35 24.363796 35 25.2944069 35 26.2246481 34.6450492 26.9348998 33.9351475 28.3550334 32.5149745 28.3550334 30.2126008 26.9348998 28.7924277L14.2076774 16.0648525C12.7871741 14.6450492 10.4856036 14.6450492 9.06510024 16.0648525 7.64496659 17.4850255 7.64496659 19.7873992 9.06510024 21.2075723L21.7926923 33.9351475zM36.4998221 26C38.4326605 26 40 24.3251452 40 22.2588697L40 3.74113034C40 1.67523518 38.4326605 0 36.4998221 0 34.5669836 0 33 1.67523518 33 3.74113034L33 22.25925C33 24.3251452 34.5669836 26 36.4998221 26zM53.2077922 54.0648525C51.7872626 52.6450492 49.4856496 52.6450492 48.0651199 54.0648525 46.64496 55.4850255 46.64496 57.7873992 48.0651199 59.2075723L60.7925775 71.9351475C61.5028424 72.6450492 62.4331007 73 63.3637288 73 64.2943569 73 65.224985 72.6450492 65.9348801 71.9351475 67.35504 70.5149745 67.35504 68.2126008 65.9348801 66.7924277L53.2077922 54.0648525zM78.2588697 42L59.7411303 42C57.6752352 42 56 43.5669836 56 45.5001779 56 47.4333723 57.6748548 49 59.7411303 49L78.2588697 49C80.3247648 49 82 47.4330164 82 45.5001779 82 43.5673395 80.3247648 42 78.2588697 42z"/>
    </g>
  </g>
</svg>
