<svg xmlns="http://www.w3.org/2000/svg" width="512" height="512" viewBox="0 0 512 512">
  <g fill="none">
    <g transform="translate(27 130)">
      <path fill="#FFB64D" d="M338.074389,8.91301192 C328.27973,-0.863976043 313.746756,-2.44140449 302,3.41432789 C303.874683,4.8369424 305.773775,6.22608363 307.476891,7.93182632 L339.085658,39.5375787 C340.786681,41.2370451 342.168283,43.1310751 343.586849,45 C349.448022,33.2466936 347.855099,18.709526 338.074389,8.91301192 Z"/>
      <polygon fill="#FFB64D" points="172.003 143 143 171.997 172.003 201 201 171.997"/>
      <path fill="#FFA919" d="M128.536394,97.055983 C124.463657,92.9826131 117.862392,92.9812236 113.788266,97.0525092 L99.0540315,111.778613 C94.9812949,115.853372 94.9826842,122.452885 99.0540315,126.52556 L128.52389,156 L158,126.52417 L128.536394,97.055983 Z"/>
      <path fill="#989EB1" d="M329.411044,60.6897102 C327.987292,58.0180404 326.507708,55.3491457 324.25832,53.1173198 L292.616845,21.6539163 C290.371645,19.4116839 287.685361,17.9381377 284.999078,16.5193985 L284.990005,16.5284174 C274.353746,10.9394868 259.466472,11.9017319 249.953162,20.0471681 C249.922453,20.073531 249.882672,20.0825499 249.851964,20.1096065 L160,96.7451111 L247.777754,184 L325.792343,95.6170573 C334.176423,85.9897498 335.059986,71.2993818 329.411044,60.6897102 Z"/>
      <path fill="#707487" d="M99.7586523,156 L84.8804201,170.928265 L93.5963157,179.674707 C97.7043064,183.797095 97.7043064,190.476363 93.5963157,194.598751 C89.4876238,198.721842 82.8330856,198.721842 78.7243937,194.598751 L70.0070958,185.850901 L55.1337716,200.773538 L63.8524718,209.522794 C67.9604625,213.645182 67.9604625,220.32445 63.8524718,224.446838 C59.7437799,228.569929 53.0892416,228.569929 48.9805498,224.446838 L40.2604473,215.696174 L32.8143198,223.168398 C20.5408299,235.515861 20.5408299,255.593065 32.8248369,267.940528 L47.7002646,282.870904 L40.2604473,290.336796 C36.1524566,294.459184 36.1524566,301.138451 40.2604473,305.260839 C44.3691392,309.383931 51.0236775,309.383931 55.1323693,305.260839 L62.569382,297.797762 L77.4504188,312.733063 C80.0874137,315.375078 83.1990817,317.166442 86.3920821,318.673552 L77.4504188,327.646553 C65.1565958,339.973612 45.138993,339.973612 32.8248369,327.646553 L17.952915,312.722509 C13.8449243,308.600121 7.18898372,308.600121 3.08099302,312.722509 C-1.02699767,316.844897 -1.02699767,323.524165 3.08099302,327.646553 L17.952915,342.570596 C38.4536045,363.143135 71.8216512,363.143135 92.3223407,342.570596 C108.896635,325.938214 112.93311,321.887593 129.507404,305.255211 L120.792911,296.510176 C116.68492,292.387788 116.68492,285.70852 120.792911,281.586132 C124.900902,277.463744 131.556842,277.463744 135.664833,281.586132 L144.379326,290.331167 L159.251248,275.407124 L150.536755,266.662089 C146.428764,262.539701 146.428764,255.860433 150.536755,251.738045 C154.644745,247.615657 161.300686,247.615657 165.408677,251.738045 L174.12317,260.48308 L189,245.554111 L99.7586523,156 Z"/>
      <path fill="#FFA919" d="M247.946087,216.467038 L218.475128,187 L189,216.476069 L218.478602,245.950748 C222.547011,250.018616 229.144282,250.015838 233.209913,245.945885 L247.946087,231.211672 C252.017971,227.14033 252.017971,220.539074 247.946087,216.467038 Z"/>
    </g>
    <g fill="#FFA919" transform="translate(240 3)">
      <path d="M210 104C210 107.155583 211.271442 110.252593 213.51538 112.484442 215.747115 114.71629 218.830546 116 221.987188 116 225.156032 116 228.251665 114.71507 230.4834 112.484442 232.716356 110.251373 234 107.155583 234 104 234 100.832215 232.715135 97.747407 230.4834 95.5155583 228.251665 93.2837096 225.156032 92 221.987188 92 218.831766 92 215.747115 93.2849298 213.51538 95.5155583 211.271442 97.7364246 210 100.832215 210 104zM164 58C167.155583 58 170.252593 56.7150702 172.483221 54.4844417 174.727273 52.2513728 176 49.1555827 176 46 176 42.8444173 174.727273 39.747407 172.483221 37.5155583 170.251373 35.2837096 167.167785 34 164 34 160.843197 34 157.746187 35.2849298 155.515558 37.5155583 153.282489 39.7486272 152 42.8444173 152 46 152 49.1555827 153.28371 52.252593 155.515558 54.4844417 157.746187 56.7162904 160.841977 58 164 58zM67 43C70.1568029 43 73.252593 41.7272727 75.4844417 39.4832215 77.728493 37.2513728 79 34.1677852 79 31 79 27.8444173 77.728493 24.7596095 75.4844417 22.5155583 73.2513728 20.2824893 70.1568029 19 67 19 63.8444173 19 60.747407 20.2837096 58.5167785 22.5155583 56.2837096 24.7596095 55 27.8444173 55 31 55 34.1677852 56.2849298 37.2635754 58.5167785 39.4832215 60.747407 41.7272727 63.8431971 43 67 43zM11.9993899 126C15.1548121 126 18.2516651 124.71507 20.4956022 122.484442 22.7285576 120.251373 24 117.155583 24 114 24 110.844417 22.7285576 107.747407 20.4956022 105.515558 18.2516651 103.28371 15.1548121 102 11.9993899 102 8.84396766 102 5.74711475 103.28493 3.51659973 105.515558 1.28486451 107.748627 0 110.844417 0 114 0 117.155583 1.28486451 120.252593 3.51659973 122.484442 5.74711475 124.71507 8.84396766 126 11.9993899 126zM149 239C145.830995 239 142.735204 240.28493 140.515558 242.515558 138.271507 244.748627 137 247.844417 137 251 137 254.167785 138.271507 257.252593 140.515558 259.484442 142.735204 261.71629 145.830995 263 149 263 152.155583 263 155.23917 261.71507 157.483221 259.484442 159.71507 257.251373 161 254.155583 161 251 161 247.844417 159.71507 244.747407 157.483221 242.515558 155.252593 240.28371 152.156803 239 149 239zM231 184C227.844417 184 224.747407 185.28493 222.515558 187.515558 220.282489 189.747407 219 192.844417 219 196 219 199.167785 220.28371 202.252593 222.515558 204.484442 224.748627 206.71629 227.844417 208 231 208 234.155583 208 237.252593 206.71507 239.483221 204.484442 241.71629 202.252593 243 199.155583 243 196 243 192.844417 241.71507 189.75961 239.483221 187.515558 237.252593 185.28371 234.156803 184 231 184zM155.461782 108.539229C157.770137 110.84641 160.79347 112 163.818004 112 166.842539 112 169.867073 110.84641 172.174227 108.539229L213.538368 67.1746099C218.153877 62.5590475 218.153877 55.0763329 213.538368 50.4607705 208.921658 45.8464098 201.441433 45.8464098 196.824722 50.4607705L155.46058 91.8253901C150.846273 96.4409525 150.846273 103.923667 155.461782 108.539229zM71.8262499 108.539229C74.1345679 110.84641 77.1578517 112 80.1823371 112 83.2068224 112 86.2301062 110.84641 88.5384242 108.539229 93.1538586 103.923667 93.1538586 96.4409525 88.5384242 91.8253901L47.1749517 50.4607705C42.5583157 45.8464098 35.0782118 45.8464098 30.4615758 50.4607705 25.8461414 55.0763329 25.8461414 62.5590475 30.4615758 67.1746099L71.8262499 108.539229zM116.99939 82C123.626265 82 129 76.7177657 129 70.2010505L129 11.7989495C129 5.28343404 123.626265 0 116.99939 0 110.372515 0 105 5.28343404 105 11.7989495L105 70.2022501C105 76.7177657 110.372515 82 116.99939 82zM172.175325 174.460771C167.558603 169.84641 160.078361 169.84641 155.46164 174.460771 150.84612 179.076333 150.84612 186.559048 155.46164 191.17461L196.825877 232.539229C199.134238 234.84641 202.157577 236 205.182119 236 208.20666 236 211.231201 234.84641 213.53836 232.539229 218.15388 227.923667 218.15388 220.440952 213.53836 215.82539L172.175325 174.460771zM251.20105 134L192.79895 134C186.283434 134 181 139.372515 181 146.00061 181 152.628705 186.282234 158 192.79895 158L251.20105 158C257.716566 158 263 152.627485 263 146.00061 263 139.373735 257.716566 134 251.20105 134z"/>
    </g>
  </g>
</svg>
